<svg xmlns="http://www.w3.org/2000/svg" enable-background="new 0 0 100 100" viewBox="0 0 100 100" id="search"><path d="M34,48c-1.105,0-2-0.896-2-2c0-7.72,6.281-14,14-14c1.105,0,2,0.896,2,2s-0.895,2-2,2c-5.514,0-10,4.486-10,10
	C36,47.104,35.105,48,34,48z M79.414,79.414C79.023,79.805,78.512,80,78,80s-1.023-0.195-1.414-0.586L62.895,65.723
	C58.345,69.625,52.449,72,46,72c-14.336,0-26-11.663-26-26s11.664-26,26-26s26,11.663,26,26c0,6.45-2.375,12.346-6.277,16.895
	l13.691,13.691C80.195,77.367,80.195,78.633,79.414,79.414z M68,46c0-12.131-9.869-22-22-22s-22,9.869-22,22s9.869,22,22,22
	S68,58.131,68,46z"></path></svg>