<svg xmlns="http://www.w3.org/2000/svg" viewBox="0 0 100 100" id="sms"><g><path d="M50,31.24A18.77,18.77,0,0,0,35.71,62.17l-4,4a1.51,1.51,0,0,0-.33,1.64,1.5,1.5,0,0,0,1.39.92H50a18.76,18.76,0,0,0,0-37.52Zm0,34.52H36.36l2.49-2.49a1.49,1.49,0,0,0,0-2.12A15.77,15.77,0,1,1,50,65.76Z"></path><path d="M42.32 48.94A1.52 1.52 0 0041.88 50a1.5 1.5 0 001.5 1.5 1.5 1.5 0 001.06-2.56A1.55 1.55 0 0042.32 48.94zM55.56 48.94a1.5 1.5 0 000 2.12 1.52 1.52 0 001.06.44 1.5 1.5 0 001.06-2.56A1.55 1.55 0 0055.56 48.94zM48.94 48.94a1.5 1.5 0 000 2.12A1.5 1.5 0 0050 51.5a1.36 1.36 0 00.29 0l.28-.08a1.59 1.59 0 00.26-.14 1.57 1.57 0 00.42-.42 1.59 1.59 0 00.14-.26 2.29 2.29 0 00.08-.28 1.36 1.36 0 000-.29 1.5 1.5 0 00-.44-1.06A1.55 1.55 0 0048.94 48.94zM50 80.56a5 5 0 105 5A5 5 0 0050 80.56zm0 7a2 2 0 112-2A2 2 0 0150 87.61z"></path><path d="M71.74,3.53H28.26a7.75,7.75,0,0,0-7.74,7.75V88.75a7.75,7.75,0,0,0,7.74,7.75H71.74a7.75,7.75,0,0,0,7.74-7.75V11.28A7.75,7.75,0,0,0,71.74,3.53Zm4.74,85.22a4.75,4.75,0,0,1-4.74,4.75H28.26a4.75,4.75,0,0,1-4.74-4.75V11.28a4.75,4.75,0,0,1,4.74-4.75H71.74a4.75,4.75,0,0,1,4.74,4.75Z"></path><path d="M44.17 12.75h7.06a1.5 1.5 0 000-3H44.17a1.5 1.5 0 000 3zM55.83 12.75a1.5 1.5 0 001.5-1.5 1.52 1.52 0 00-.44-1.06 1.55 1.55 0 00-2.12 0 1.52 1.52 0 00-.44 1.06 1.5 1.5 0 001.5 1.5z"></path></g></svg>